
<svg width="2453" height="357" viewBox="0 0 2453 357" fill="none" xmlns="http://www.w3.org/2000/svg">
<g filter="url(#filter0_d_1_4)">
<path d="M103.606 130.498L93.283 130.831C87.067 130.831 80.629 129.499 73.969 126.835C69.973 109.519 67.975 95.977 67.975 86.209C67.975 76.441 68.419 68.338 69.307 61.9H222.154C227.482 69.004 231.034 77.773 232.81 88.207L115.594 263.032H187.855L195.181 227.401L205.837 227.068C212.053 227.068 218.491 228.4 225.151 231.064C228.925 247.714 230.812 260.812 230.812 270.358C230.812 279.904 230.368 288.118 229.48 295H68.641C63.091 287.896 59.539 279.349 57.985 269.359L174.868 94.867H111.598L103.606 130.498ZM351.259 263.698C388.111 263.698 406.537 235.393 406.537 178.783C406.537 122.173 388.111 93.868 351.259 93.868C335.275 93.868 321.289 96.31 309.301 101.194C299.089 122.506 293.983 147.259 293.983 175.453C293.983 203.425 298.201 225.181 306.637 240.721C315.073 256.039 329.947 263.698 351.259 263.698ZM351.259 57.904C388.333 57.904 414.418 67.672 429.514 87.208C444.61 106.522 452.158 136.159 452.158 176.119C452.158 201.205 448.939 222.628 442.501 240.388C436.063 258.148 425.185 272.356 409.867 283.012C394.549 293.668 375.013 298.996 351.259 298.996C315.073 298.996 288.766 288.895 272.338 268.693C256.132 248.491 248.029 219.076 248.029 180.448C248.029 98.752 282.439 57.904 351.259 57.904ZM566.864 263.698C603.716 263.698 622.142 235.393 622.142 178.783C622.142 122.173 603.716 93.868 566.864 93.868C550.88 93.868 536.894 96.31 524.906 101.194C514.694 122.506 509.588 147.259 509.588 175.453C509.588 203.425 513.806 225.181 522.242 240.721C530.678 256.039 545.552 263.698 566.864 263.698ZM566.864 57.904C603.938 57.904 630.023 67.672 645.119 87.208C660.215 106.522 667.763 136.159 667.763 176.119C667.763 201.205 664.544 222.628 658.106 240.388C651.668 258.148 640.79 272.356 625.472 283.012C610.154 293.668 590.618 298.996 566.864 298.996C530.678 298.996 504.371 288.895 487.943 268.693C471.737 248.491 463.634 219.076 463.634 180.448C463.634 98.752 498.044 57.904 566.864 57.904ZM845.405 227.068L876.041 61.9H962.621C964.397 71.446 965.285 78.217 965.285 82.213C954.629 85.987 945.416 88.873 937.646 90.871L961.289 263.032L984.266 266.029C984.266 275.131 981.713 284.788 976.607 295H895.688L892.691 276.685C905.123 271.579 914.447 268.36 920.663 267.028L895.022 131.164L861.056 278.683H827.09L774.476 115.846L746.171 263.032L769.148 266.029C769.148 275.131 766.595 284.788 761.489 295H680.57L677.573 276.685C690.005 271.579 699.329 268.36 705.545 267.028L729.188 90.871L701.549 82.213L704.213 61.9H797.453L842.075 227.068H845.405ZM1095.71 264.364C1130.12 264.364 1147.33 252.043 1147.33 227.401C1147.33 209.419 1143.11 198.097 1134.68 193.435C1126.46 188.551 1107.81 186.109 1078.73 186.109L1077.4 263.698C1084.95 264.142 1091.05 264.364 1095.71 264.364ZM1093.72 158.803C1110.81 158.359 1122.91 156.139 1130.01 152.143C1137.12 148.147 1140.67 139.822 1140.67 127.168C1140.67 114.292 1136.56 105.745 1128.35 101.527C1120.13 97.309 1107.7 95.2 1091.05 95.2H1079.06C1078.62 123.172 1078.4 144.262 1078.4 158.47L1093.72 158.803ZM1094.05 295.333H1011.8L1008.8 277.018C1020.35 272.356 1029.67 269.137 1036.77 267.361C1036.77 266.695 1035.77 207.976 1033.78 91.204C1030.22 90.316 1021.01 87.43 1006.14 82.546L1008.8 62.233H1101.04C1127.46 62.233 1148 67.339 1162.65 77.551C1177.3 87.763 1184.63 102.526 1184.63 121.84C1184.63 131.164 1182.07 141.265 1176.97 152.143C1172.08 163.021 1166.42 169.459 1159.98 171.457C1169.75 176.785 1177.41 184.222 1182.96 193.768C1188.51 203.314 1191.29 214.303 1191.29 226.735C1191.29 247.159 1182.96 263.698 1166.31 276.352C1149.66 289.006 1125.57 295.333 1094.05 295.333ZM1313.46 61.9C1313.24 61.9 1313.24 62.122 1313.46 62.566C1313.9 63.01 1314.35 64.009 1314.79 65.563C1315.46 66.895 1316.12 68.56 1316.79 70.558C1318.12 74.11 1319.01 79.993 1319.45 88.207C1308.13 89.983 1300.69 91.093 1297.14 91.537L1295.48 263.032L1318.45 266.029C1318.45 275.131 1315.9 284.788 1310.79 295H1229.87L1226.88 276.685C1239.31 271.579 1248.63 268.36 1254.85 267.028C1254.63 253.93 1254.29 235.504 1253.85 211.75C1253.18 158.47 1252.52 118.177 1251.85 90.871L1224.21 82.213L1226.88 61.9H1313.46ZM1415.32 95.2C1415.32 120.508 1415.09 142.264 1414.65 160.468H1448.62L1451.95 137.491C1463.27 137.491 1474.26 140.266 1484.91 145.816V212.416L1462.94 213.415C1457.61 205.423 1454.5 198.43 1453.61 192.436H1414.32C1413.87 223.516 1413.65 246.937 1413.65 262.699H1470.59L1477.92 233.728C1491.68 233.728 1502.12 234.394 1509.22 235.726C1512.55 248.38 1514.22 259.924 1514.22 270.358C1514.22 280.57 1513.88 288.784 1513.22 295H1348.05L1345.05 276.685C1359.48 271.135 1368.81 267.916 1373.03 267.028C1372.8 253.93 1372.58 235.504 1372.36 211.75C1371.47 158.47 1370.69 118.177 1370.03 90.871L1342.39 82.213L1345.05 61.9H1508.56C1509.22 67.894 1509.56 75.442 1509.56 84.544C1509.56 93.424 1507.89 105.856 1504.56 121.84C1497.68 124.06 1487.24 125.17 1473.26 125.17L1465.6 95.2H1415.32ZM1628.35 263.032C1654.1 263.032 1666.97 252.043 1666.97 230.065C1666.97 220.741 1662.09 212.86 1652.32 206.422C1645.22 201.538 1635.45 196.321 1623.02 190.771C1610.81 184.999 1601.59 180.448 1595.38 177.118C1589.38 173.788 1582.39 169.126 1574.4 163.132C1559.08 151.366 1551.42 136.714 1551.42 119.176C1551.42 101.638 1558.19 87.097 1571.74 75.553C1585.5 63.787 1604.04 57.904 1627.35 57.904C1650.66 57.904 1675.52 65.341 1701.94 80.215C1701.94 96.199 1700.27 113.515 1696.94 132.163C1689.84 134.383 1679.29 135.493 1665.31 135.493L1655.65 95.866C1647.44 93.424 1638.45 92.203 1628.68 92.203C1618.91 92.203 1611.36 94.312 1606.03 98.53C1600.71 102.748 1598.04 109.075 1598.04 117.511C1598.04 125.725 1602.15 133.162 1610.36 139.822C1618.8 146.26 1628.9 152.254 1640.67 157.804C1652.43 163.132 1660.54 166.906 1664.98 169.126C1669.42 171.346 1675.08 174.676 1681.96 179.116C1688.84 183.556 1694.06 187.774 1697.61 191.77C1706.71 202.426 1711.26 214.303 1711.26 227.401C1711.26 250.489 1703.6 268.249 1688.29 280.681C1672.97 293.113 1652.99 299.329 1628.35 299.329C1615.25 299.329 1600.82 297.109 1585.06 292.669C1569.52 288.007 1556.31 282.124 1545.43 275.02C1545.87 261.478 1547.65 243.163 1550.76 220.075C1559.64 218.299 1570.29 217.411 1582.72 217.411L1589.72 257.371C1601.93 261.145 1614.8 263.032 1628.35 263.032ZM1783.94 252.709C1785.94 260.701 1786.93 267.583 1786.93 273.355C1786.93 278.905 1786.6 285.232 1785.94 292.336C1778.39 294.334 1771.17 295.333 1764.29 295.333C1757.41 295.333 1749.86 295 1741.65 294.334C1739.43 285.454 1738.32 279.016 1738.32 275.02C1738.32 270.802 1738.76 264.031 1739.65 254.707C1746.97 252.709 1753.97 251.71 1760.63 251.71C1767.51 251.71 1775.28 252.043 1783.94 252.709ZM1946.11 234.394C1951.44 233.506 1955.43 233.062 1958.1 233.062C1960.98 233.062 1967.09 233.839 1976.41 235.393C1977.3 237.169 1978.52 242.83 1980.08 252.376C1981.85 261.922 1982.74 269.692 1982.74 275.686C1982.74 281.458 1982.07 287.896 1980.74 295H1819.24L1816.24 276.685C1827.12 272.245 1836.44 269.026 1844.21 267.028C1844.21 266.362 1843.21 207.643 1841.22 90.871L1813.58 82.213L1816.24 61.9H1902.82C1902.6 61.9 1902.6 62.122 1902.82 62.566C1903.26 63.01 1903.71 64.009 1904.15 65.563C1904.82 66.895 1905.48 68.56 1906.15 70.558C1907.48 74.11 1908.37 79.993 1908.81 88.207C1897.49 89.983 1890.06 91.093 1886.5 91.537C1885.62 168.127 1885.06 225.292 1884.84 263.032H1938.78L1946.11 234.394ZM2097.56 263.698C2134.41 263.698 2152.84 235.393 2152.84 178.783C2152.84 122.173 2134.41 93.868 2097.56 93.868C2081.57 93.868 2067.59 96.31 2055.6 101.194C2045.39 122.506 2040.28 147.259 2040.28 175.453C2040.28 203.425 2044.5 225.181 2052.94 240.721C2061.37 256.039 2076.25 263.698 2097.56 263.698ZM2097.56 57.904C2134.63 57.904 2160.72 67.672 2175.81 87.208C2190.91 106.522 2198.46 136.159 2198.46 176.119C2198.46 201.205 2195.24 222.628 2188.8 240.388C2182.36 258.148 2171.48 272.356 2156.17 283.012C2140.85 293.668 2121.31 298.996 2097.56 298.996C2061.37 298.996 2035.06 288.895 2018.64 268.693C2002.43 248.491 1994.33 219.076 1994.33 180.448C1994.33 98.752 2028.74 57.904 2097.56 57.904ZM2358.78 234.394C2364.11 233.506 2368.11 233.062 2370.77 233.062C2373.66 233.062 2379.76 233.839 2389.09 235.393C2389.97 237.169 2391.2 242.83 2392.75 252.376C2394.53 261.922 2395.41 269.692 2395.41 275.686C2395.41 281.458 2394.75 287.896 2393.42 295H2231.91L2228.91 276.685C2239.79 272.245 2249.12 269.026 2256.89 267.028C2256.89 266.362 2255.89 207.643 2253.89 90.871L2226.25 82.213L2228.91 61.9H2315.49C2315.27 61.9 2315.27 62.122 2315.49 62.566C2315.94 63.01 2316.38 64.009 2316.83 65.563C2317.49 66.895 2318.16 68.56 2318.82 70.558C2320.16 74.11 2321.04 79.993 2321.49 88.207C2310.17 89.983 2302.73 91.093 2299.18 91.537C2298.29 168.127 2297.73 225.292 2297.51 263.032H2351.46L2358.78 234.394Z" fill="url(#paint0_linear_1_4)"/>
</g>
<defs>
<filter id="filter0_d_1_4" x="0.684986" y="0.603992" width="2452.03" height="356.025" filterUnits="userSpaceOnUse" color-interpolation-filters="sRGB">
<feFlood flood-opacity="0" result="BackgroundImageFix"/>
<feColorMatrix in="SourceAlpha" type="matrix" values="0 0 0 0 0 0 0 0 0 0 0 0 0 0 0 0 0 0 127 0" result="hardAlpha"/>
<feOffset/>
<feGaussianBlur stdDeviation="28.65"/>
<feComposite in2="hardAlpha" operator="out"/>
<feColorMatrix type="matrix" values="0 0 0 0 0 0 0 0 0 0 0 0 0 0 0 0 0 0 0.3 0"/>
<feBlend mode="normal" in2="BackgroundImageFix" result="effect1_dropShadow_1_4"/>
<feBlend mode="normal" in="SourceGraphic" in2="effect1_dropShadow_1_4" result="shape"/>
</filter>
<linearGradient id="paint0_linear_1_4" x1="1270.5" y1="244.5" x2="1300" y2="-147.5" gradientUnits="userSpaceOnUse">
<stop stop-color="#ACACAC"/>
<stop offset="1"/>
</linearGradient>
</defs>
</svg>
